<svg 
 xmlns="http://www.w3.org/2000/svg"
 width="22px" height="21px">
<path fill-rule="evenodd"  fill="none"
 d="M-0.000,-0.000 L21.1000,-0.000 L21.1000,20.1000 L-0.000,20.1000 L-0.000,-0.000 Z"/>
<path fill-rule="evenodd"  fill="rgb(87, 37, 137)"
 d="M10.1000,12.250 C9.989,12.250 9.167,11.465 9.167,10.500 C9.167,9.535 9.989,8.750 10.1000,8.750 C12.011,8.750 12.833,9.535 12.833,10.500 C12.833,11.465 12.011,12.250 10.1000,12.250 ZM10.1000,6.125 C9.989,6.125 9.167,5.340 9.167,4.375 C9.167,3.410 9.989,2.625 10.1000,2.625 C12.011,2.625 12.833,3.410 12.833,4.375 C12.833,5.340 12.011,6.125 10.1000,6.125 ZM10.1000,14.875 C12.011,14.875 12.833,15.660 12.833,16.625 C12.833,17.590 12.011,18.375 10.1000,18.375 C9.989,18.375 9.167,17.590 9.167,16.625 C9.167,15.660 9.989,14.875 10.1000,14.875 Z"/>
</svg>