<svg 
 xmlns="http://www.w3.org/2000/svg"
 width="17px" height="16px">
<path fill-rule="evenodd"  fill="rgb(87, 37, 137)"
 d="M11.484,10.250 L12.208,10.250 L16.782,14.625 L15.417,15.928 L15.417,15.928 L15.416,15.928 L10.833,11.563 L10.833,10.871 L10.586,10.626 C9.507,11.512 8.129,11.1000 6.708,11.1000 C3.423,11.1000 0.750,9.448 0.750,6.312 C0.750,3.176 3.423,0.625 6.708,0.625 C9.993,0.625 12.666,3.176 12.666,6.312 C12.666,7.669 12.155,8.984 11.227,10.013 L11.484,10.250 ZM6.708,2.375 C4.434,2.375 2.583,4.141 2.583,6.312 C2.583,8.483 4.434,10.250 6.708,10.250 C8.983,10.250 10.833,8.483 10.833,6.312 C10.833,4.141 8.983,2.375 6.708,2.375 Z"/>
</svg>